<svg width="671" height="87" viewBox="0 0 671 87" fill="none" xmlns="http://www.w3.org/2000/svg">
<path d="M144 56.3126V70.1584H153.668V56.9174C153.668 55.6322 154.172 54.3902 155.085 53.483C155.988 52.5758 157.223 52.0574 158.501 52.0574H168.416C173.035 52.0574 177.471 50.2105 180.737 46.9165C184.002 43.6332 185.839 39.1727 185.839 34.5287C185.839 29.8846 184.002 25.4241 180.737 22.1301C177.471 18.8468 173.035 17 168.405 17H144V34.3019H153.668V26.1477H167.761C169.952 26.1477 172.047 27.0226 173.593 28.5778C175.14 30.133 176.01 32.239 176.01 34.4423C176.01 36.6455 175.14 38.7515 173.593 40.3068C172.047 41.862 169.952 42.7368 167.761 42.7368H157.524C155.751 42.7368 153.99 43.0824 152.357 43.7736C150.714 44.454 149.231 45.4585 147.974 46.7221C146.718 47.9857 145.729 49.4869 145.042 51.1285C144.354 52.7594 144 54.5306 144 56.3126Z" fill="#1B1340"/>
<path d="M187.343 70.1584V49.0657C187.343 40.4579 192.338 33.6106 202.338 33.6106C203.939 33.589 205.539 33.7618 207.108 34.1398V42.8124C205.969 42.7368 204.991 42.7368 204.53 42.7368C199.234 42.7368 196.957 45.1776 196.957 50.1241V70.1584H187.343Z" fill="#1B1340"/>
<path d="M209.987 52.2725C209.987 41.6883 217.935 33.6206 228.999 33.6206C240.063 33.6206 248.012 41.6883 248.012 52.2725C248.012 62.8567 240.063 71 228.999 71C217.935 71 209.987 62.8459 209.987 52.2725ZM238.538 52.2725C238.538 46.2568 234.521 41.9907 228.999 41.9907C223.467 41.9907 219.461 46.246 219.461 52.2725C219.461 58.3638 223.478 62.5543 228.999 62.5543C234.521 62.5543 238.538 58.353 238.538 52.2725Z" fill="#1B1340"/>
<path d="M278.744 52.2725C278.744 41.6883 286.693 33.6206 297.757 33.6206C308.811 33.6206 316.759 41.6883 316.759 52.2725C316.759 62.8567 308.811 71 297.757 71C286.693 71 278.744 62.8459 278.744 52.2725ZM307.296 52.2725C307.296 46.2568 303.279 41.9907 297.757 41.9907C292.236 41.9907 288.219 46.246 288.219 52.2725C288.219 58.3638 292.236 62.5543 297.757 62.5543C303.279 62.5543 307.296 58.353 307.296 52.2725Z" fill="#1B1340"/>
<path d="M321.754 70.1586V49.8327C321.754 40.3933 327.737 33.6108 338.415 33.6108C349.017 33.6108 355 40.3825 355 49.8327V70.1586H345.461V50.5887C345.461 45.3398 343.109 42.0565 338.415 42.0565C333.721 42.0565 331.368 45.329 331.368 50.5887V70.1586H321.754Z" fill="#1B1340"/>
<path d="M275.866 42.0668H265.489V55.3942C265.489 60.0383 267.154 62.1659 271.923 62.1659C272.375 62.1659 273.513 62.1659 274.953 62.0903V69.9312C272.987 70.4604 271.247 70.7737 269.345 70.7737C261.321 70.7737 255.865 65.9028 255.865 56.6902V42.0668H249.419V34.3771H251.02C251.654 34.3771 252.288 34.2475 252.868 34.0099C253.458 33.7615 253.985 33.4051 254.436 32.9515C254.887 32.4979 255.241 31.9686 255.489 31.3746C255.736 30.7806 255.854 30.1542 255.854 29.517V22.2701H265.468V34.3771H275.844V42.0668H275.866Z" fill="#1B1340"/>
<path d="M387.184 67.4536C383.137 65.1638 379.784 61.8047 377.505 57.7543C375.204 53.5312 374 48.8004 374 43.994C374 39.1875 375.204 34.4567 377.505 30.2336C379.784 26.1832 383.126 22.835 387.184 20.5344C391.384 18.1582 396.147 16.9376 400.987 17.0025C404.926 16.97 408.833 17.7585 412.435 19.3247C415.734 20.7396 418.653 22.9106 420.954 25.654C423.232 28.3866 424.817 31.6269 425.587 35.094H415.409C414.258 32.5126 412.381 30.3308 409.994 28.8079C407.335 27.2633 404.319 26.4425 401.237 26.4317C398.155 26.4209 395.127 27.2093 392.458 28.7323C389.897 30.2552 387.792 32.437 386.37 35.0508C384.895 37.8158 384.135 40.8941 384.135 44.0264C384.135 47.1586 384.906 50.2369 386.37 53.0019C387.792 55.6157 389.908 57.7975 392.491 59.3097C395.073 60.8218 398.014 61.5887 401.009 61.5563C404.177 61.6643 407.292 60.8434 409.994 59.1909C412.381 57.6571 414.258 55.4753 415.409 52.8939H425.587C424.817 56.3826 423.221 59.6445 420.932 62.3987C418.642 65.153 415.734 67.3239 412.435 68.7389C408.822 70.2834 404.915 71.0611 400.987 70.9963C396.147 71.0719 391.384 69.8406 387.184 67.4536Z" fill="#6D4AFF"/>
<path d="M456.839 35.6134C459.703 37.1039 462.069 39.3937 463.653 42.202C465.346 45.2478 466.193 48.6933 466.117 52.182V70.1331H457.468L456.85 64.7435C455.721 66.6985 454.072 68.2862 452.075 69.3555C449.937 70.4572 447.55 71.008 445.141 70.9648C442.059 70.9972 439.032 70.1763 436.384 68.5994C433.715 66.9901 431.544 64.6787 430.112 61.9244C428.528 58.8894 427.736 55.5195 427.801 52.0956C427.757 48.7365 428.625 45.4206 430.307 42.5044C431.946 39.6638 434.322 37.3308 437.198 35.7538C440.204 34.1121 443.589 33.2912 447.018 33.356C450.426 33.2804 453.8 34.0581 456.839 35.6134ZM453.67 59.7751C455.547 57.9821 456.481 55.4331 456.481 52.1064C456.6 49.3522 455.634 46.6735 453.779 44.6322C452.921 43.6925 451.869 42.958 450.708 42.4612C449.536 41.9643 448.277 41.7267 447.007 41.7591C445.727 41.7267 444.457 41.9751 443.275 42.4828C442.092 42.9796 441.039 43.7357 440.171 44.6754C438.413 46.7708 437.447 49.417 437.447 52.1388C437.447 54.8606 438.413 57.5069 440.171 59.6023C441.039 60.5311 442.103 61.2656 443.285 61.7624C444.468 62.2485 445.738 62.4861 447.018 62.4429C448.245 62.4645 449.471 62.2377 450.61 61.7732C451.749 61.3088 452.791 60.6283 453.67 59.7751Z" fill="#6D4AFF"/>
<path d="M482.231 70.133H472.486V17.8025H482.231V70.133Z" fill="#6D4AFF"/>
<path d="M523.932 55.4002H496.565C497 57.5819 498.171 59.5477 499.886 60.9734C501.6 62.3019 503.727 62.9932 505.898 62.9392C507.634 63.004 509.37 62.7016 510.987 62.0535C512.267 61.4703 513.32 60.4874 513.993 59.2561H523.021C522.077 62.842 519.831 65.9419 516.706 67.9616C513.559 69.9814 509.891 71.0399 506.147 70.9859C502.718 71.0615 499.322 70.2298 496.327 68.5773C493.516 67.0111 491.216 64.6889 489.697 61.8699C488.102 58.8888 487.299 55.5514 487.353 52.1707C487.299 48.79 488.112 45.4525 489.729 42.4714C491.27 39.6632 493.571 37.341 496.359 35.7641C499.278 34.1331 502.566 33.3015 505.919 33.3663C509.196 33.3231 512.419 34.1763 515.251 35.8181C517.997 37.4382 520.243 39.7712 521.74 42.5687C523.325 45.5173 524.139 48.8116 524.095 52.1599C524.084 53.2292 524.041 54.3201 523.932 55.4002ZM499.81 43.3571C498.15 44.7072 496.978 46.5758 496.49 48.6604H514.883C514.6 46.6082 513.537 44.7396 511.909 43.4327C510.206 42.0394 508.057 41.3049 505.854 41.3698C503.673 41.3049 501.535 42.007 499.81 43.3571Z" fill="#6D4AFF"/>
<path d="M527.633 49.6437C527.546 47.4727 527.893 45.3017 528.664 43.2603C529.434 41.219 530.617 39.3612 532.136 37.7951C535.142 34.8248 539.287 33.3451 544.572 33.3451C549.856 33.3451 553.99 34.8572 556.985 37.8707C558.494 39.4476 559.666 41.3054 560.436 43.3467C561.207 45.3881 561.554 47.5483 561.456 49.7301V70.1978H551.712V50.4106C551.864 48.1748 551.256 45.9606 549.976 44.1244C549.281 43.4116 548.445 42.8391 547.534 42.4503C546.622 42.0614 545.624 41.8562 544.626 41.8562C543.628 41.8562 542.64 42.0614 541.718 42.4503C540.795 42.8391 539.971 43.4116 539.265 44.1244C537.952 45.9606 537.312 48.1964 537.442 50.443V70.1654H527.698L527.633 49.6437Z" fill="#6D4AFF"/>
<path d="M593.272 17.8025H603.017V70.133H594.151L593.468 64.5813C592.404 66.5579 590.776 68.1888 588.802 69.2689C586.577 70.4354 584.103 71.0079 581.596 70.9539C578.764 70.9647 575.975 70.2194 573.534 68.8045C570.908 67.2708 568.77 65.035 567.37 62.3455C565.732 59.2025 564.918 55.6922 565.016 52.1495C564.918 48.6176 565.732 45.1181 567.37 41.9858C568.77 39.2964 570.908 37.0606 573.534 35.5269C575.986 34.1119 578.764 33.3667 581.596 33.3775C584.027 33.3235 586.425 33.8527 588.606 34.922C590.559 35.8617 592.187 37.3738 593.272 39.2532V17.8025ZM590.57 59.7425C591.514 58.7164 592.241 57.5067 592.697 56.1998C593.164 54.8929 593.348 53.4996 593.261 52.1063C593.261 48.8336 592.35 46.317 590.538 44.5672C589.67 43.7031 588.628 43.0227 587.489 42.569C586.349 42.1046 585.134 41.8778 583.897 41.8886C582.66 41.8994 581.455 42.1478 580.316 42.6339C579.187 43.1091 578.156 43.8112 577.299 44.686C576.377 45.6905 575.661 46.8786 575.205 48.1531C574.738 49.4384 574.543 50.7994 574.608 52.1603C574.467 54.9253 575.433 57.6363 577.299 59.6993C578.167 60.6174 579.22 61.341 580.392 61.8163C581.564 62.3023 582.822 62.5292 584.081 62.4967C585.297 62.5075 586.49 62.2591 587.608 61.7947C588.736 61.3086 589.746 60.6174 590.57 59.7425Z" fill="#6D4AFF"/>
<path d="M636.742 35.6134C639.607 37.1039 641.973 39.3937 643.557 42.202C645.25 45.2478 646.096 48.6933 646.02 52.182V70.1331H637.361L636.742 64.7435C635.603 66.6877 633.954 68.2862 631.957 69.3555C629.819 70.4572 627.432 71.008 625.023 70.9648C621.941 70.9972 618.914 70.1763 616.277 68.5994C613.607 66.9901 611.426 64.6787 609.994 61.9244C608.41 58.8894 607.617 55.5195 607.683 52.0956C607.639 48.7365 608.507 45.4206 610.189 42.5044C611.828 39.6746 614.204 37.3416 617.069 35.7646C620.086 34.1229 623.471 33.2912 626.911 33.356C630.329 33.2804 633.704 34.0581 636.742 35.6134ZM633.585 59.7751C635.462 57.9821 636.395 55.4331 636.395 52.1064C636.515 49.363 635.549 46.6735 633.704 44.6322C632.825 43.7141 631.773 42.9904 630.601 42.4936C629.429 41.9968 628.17 41.7375 626.9 41.7375C625.631 41.7375 624.372 41.9968 623.2 42.4936C622.028 42.9904 620.975 43.7141 620.097 44.6322C618.339 46.7276 617.384 49.3738 617.384 52.0956C617.384 54.8174 618.349 57.4637 620.097 59.559C620.965 60.4987 622.017 61.2332 623.189 61.73C624.361 62.2269 625.631 62.4645 626.911 62.4321C628.148 62.4537 629.364 62.2269 630.514 61.7732C631.664 61.3088 632.706 60.6283 633.585 59.7751Z" fill="#6D4AFF"/>
<path d="M650.882 48.8753C650.708 44.771 652.13 40.753 654.853 37.6531C657.49 34.7801 661.256 33.3436 666.139 33.3436C667.777 33.3328 669.405 33.5164 671 33.8836V42.6324C670.23 42.6324 669.351 42.5568 668.385 42.5568C665.715 42.5568 663.762 43.1724 662.525 44.4037C661.863 45.1706 661.353 46.0563 661.028 47.0175C660.713 47.9788 660.594 48.9941 660.67 49.9986V70.1747H650.925L650.882 48.8753Z" fill="#6D4AFF"/>
<path fill-rule="evenodd" clip-rule="evenodd" d="M74.932 12.9884H0V76.1277C0 82.135 4.90606 87 10.9632 87H67.0085H48.1219V81.935C48.1219 79.3528 49.0494 76.8481 50.737 74.8864L70.0483 52.4103V52.4214C70.0371 52.4324 70.0259 52.4546 70.0036 52.4657C72.2387 49.9277 75.5243 48.3317 79.1787 48.3317H83.4478V21.4446C83.4589 16.7787 79.6481 12.9884 74.932 12.9884Z" fill="url(#paint0_radial_11985_190901)"/>
<path fill-rule="evenodd" clip-rule="evenodd" d="M70.0594 52.4218C68.1595 54.5497 67.0085 57.3536 67.0085 60.4125L67.0085 87H48.1219V81.935C48.1219 79.3528 49.0494 76.8481 50.737 74.8864L70.0483 52.4103L70.0594 52.4218Z" fill="#B8D7FF"/>
<path d="M77.6812 73.1906H81.5367C81.6932 73.8556 82.0843 74.443 82.6431 74.853C83.1907 75.2631 83.8724 75.4737 84.5653 75.4404C86.3087 75.4404 87.4598 74.4873 87.4598 73.0909C87.4598 71.6944 86.264 70.9186 83.8948 70.9186H82.3637V67.771H83.6936C85.9846 67.771 86.9233 66.9287 86.9233 65.6764C86.9233 64.424 85.9064 63.5596 84.4983 63.5596C83.8724 63.5263 83.2466 63.7258 82.7772 64.1359C82.2967 64.5459 82.0061 65.1222 81.9502 65.7429H78.2288C78.3629 63.5485 80.1063 60.401 84.4759 60.401C87.985 60.401 90.4101 62.3848 90.4101 65.1776C90.4101 66.0753 90.1307 66.9509 89.5943 67.6713C89.0579 68.3917 88.3091 68.9347 87.4486 69.2007V69.2561C88.4544 69.4334 89.3596 69.9655 89.9966 70.7524C90.6336 71.5393 90.9689 72.5256 90.9354 73.5453C90.9354 76.5709 88.1415 78.5658 84.5318 78.5658C80.6986 78.5879 77.9606 76.4268 77.6812 73.1906Z" fill="#8F69FF"/>
<path d="M97.6742 60.7017H100.479V78.3125H96.8584V64.8025L93.3716 67.152V63.5944L97.6742 60.7017Z" fill="#8F69FF"/>
<path fill-rule="evenodd" clip-rule="evenodd" d="M10.9632 0H95.0368C101.094 0 106 4.86535 106 10.8723V48.3326H83.4589V21.4454C83.4589 16.7685 79.6369 12.9884 74.932 12.9884H0V10.8723C0 4.86535 4.90606 0 10.9632 0Z" fill="url(#paint1_linear_11985_190901)"/>
<defs>
<radialGradient id="paint0_radial_11985_190901" cx="0" cy="0" r="1" gradientUnits="userSpaceOnUse" gradientTransform="translate(101.946 -72.5808) scale(216.425 183.803)">
<stop offset="0.5563" stop-color="#6D4AFF"/>
<stop offset="0.9944" stop-color="#06B8FF"/>
</radialGradient>
<linearGradient id="paint1_linear_11985_190901" x1="89.0493" y1="59.4689" x2="23.494" y2="-31.6953" gradientUnits="userSpaceOnUse">
<stop stop-color="#BFE8FF"/>
<stop offset="0.3075" stop-color="#BFABFF"/>
<stop offset="1" stop-color="#7341FF"/>
</linearGradient>
</defs>
</svg>
