<svg width="528" height="87" viewBox="0 0 528 87" fill="none" xmlns="http://www.w3.org/2000/svg">
<path d="M404.838 20.7856C408.788 22.9782 412.06 26.2078 414.31 30.1394C416.538 34.1575 417.711 38.6832 417.711 43.2845C417.711 47.8858 416.538 52.4115 414.31 56.4296C412.071 60.3828 408.788 63.634 404.838 65.8374C400.608 68.1705 395.839 69.3478 391.017 69.2506H374V17.3616H391.017C395.839 17.2644 400.608 18.4525 404.838 20.7856ZM391.588 60.0048C394.472 60.0588 397.314 59.3135 399.811 57.8553C402.298 56.3971 404.343 54.2693 405.71 51.731C407.077 49.1279 407.798 46.2332 407.798 43.2953C407.798 40.3574 407.087 37.4626 405.71 34.8595C404.364 32.3753 402.384 30.3014 399.951 28.8541C397.422 27.3527 394.526 26.5966 391.577 26.6398H383.698V59.94L391.588 60.0048Z" fill="#6D4AFF"/>
<path d="M421.963 48.1449C421.791 44.0728 423.19 40.098 425.87 37.0196C428.496 34.1789 432.188 32.7532 436.967 32.7532C438.571 32.7423 440.175 32.926 441.746 33.2824V41.945C440.993 41.945 440.132 41.8694 439.174 41.8694C436.548 41.8694 434.621 42.4742 433.405 43.6948C432.748 44.4509 432.253 45.3366 431.941 46.2871C431.629 47.2376 431.51 48.2421 431.586 49.2466V69.2396H422.017L421.963 48.1449Z" fill="#6D4AFF"/>
<path d="M445.632 26.0673C445.062 25.538 444.61 24.9007 444.297 24.1879C443.985 23.475 443.834 22.7081 443.845 21.9304C443.834 21.1419 443.996 20.375 444.297 19.6513C444.61 18.9277 445.062 18.2796 445.632 17.7503C446.192 17.1887 446.848 16.7458 447.58 16.4434C448.312 16.141 449.098 15.9897 449.884 16.0005C450.669 15.9897 451.444 16.141 452.166 16.4434C452.887 16.7458 453.543 17.1887 454.092 17.7503C454.663 18.2796 455.115 18.9277 455.427 19.6513C455.739 20.375 455.89 21.1527 455.879 21.9304C455.89 22.7081 455.739 23.475 455.427 24.1879C455.115 24.9007 454.663 25.538 454.092 26.0673C453.543 26.6181 452.887 27.0502 452.166 27.3418C451.444 27.6334 450.669 27.7847 449.894 27.7739C449.109 27.7847 448.323 27.6442 447.602 27.3526C446.859 27.0502 446.192 26.6181 445.632 26.0673ZM454.684 69.1965H445.115V33.4661H454.684V69.1965Z" fill="#6D4AFF"/>
<path d="M470.066 69.1964L456.503 33.466H466.578L472.789 51.72C473.747 54.9172 474.306 56.829 474.457 57.4987H474.608C475.06 55.7813 475.673 53.8479 476.352 51.72L482.562 33.466H492.712L479.15 69.1964H470.066Z" fill="#6D4AFF"/>
<path d="M527.855 54.6035H500.968C501.388 56.7638 502.55 58.7188 504.24 60.123C505.93 61.4407 508.018 62.132 510.149 62.0672C511.861 62.132 513.561 61.8296 515.144 61.1923C516.392 60.5874 517.404 59.6045 518.06 58.3732H526.919C525.993 61.9268 523.776 65.0051 520.708 66.9925C517.619 69.0016 514.013 70.0385 510.332 69.9953C506.963 70.0709 503.626 69.2392 500.677 67.6082C497.922 66.0636 495.661 63.7522 494.154 60.9547C492.594 57.9951 491.797 54.7008 491.851 51.3524C491.797 48.004 492.604 44.688 494.197 41.7501C495.704 38.9634 497.965 36.6627 500.709 35.0966C503.594 33.4872 506.845 32.6879 510.128 32.7635C513.346 32.7203 516.521 33.5628 519.298 35.1938C522 36.7923 524.207 39.1038 525.681 41.8797C527.242 44.796 528.038 48.0688 527.995 51.374C528.017 52.4541 527.963 53.5342 527.855 54.6035ZM504.143 42.6682C502.507 44.0076 501.366 45.8546 500.892 47.9176H518.975C518.696 45.887 517.651 44.0292 516.058 42.7438C514.39 41.3721 512.28 40.6376 510.117 40.6916C507.953 40.6268 505.844 41.3289 504.143 42.6682Z" fill="#6D4AFF"/>
<path d="M144 55.3119V69.1575H153.668V55.9167C153.668 54.6315 154.172 53.3895 155.085 52.4823C155.988 51.5751 157.223 51.0567 158.501 51.0567H168.416C173.035 51.0567 177.471 49.2099 180.737 45.9159C184.002 42.6327 185.839 38.1723 185.839 33.5284C185.839 28.8844 184.002 24.424 180.737 21.13C177.471 17.8468 173.035 16 168.405 16H144V33.3016H153.668V25.1476H167.761C169.952 25.1476 172.047 26.0224 173.593 27.5776C175.14 29.1328 176.01 31.2388 176.01 33.442C176.01 35.6452 175.14 37.7511 173.593 39.3063C172.047 40.8615 169.952 41.7363 167.761 41.7363H157.524C155.751 41.7363 153.99 42.0819 152.357 42.7731C150.714 43.4535 149.231 44.4579 147.974 45.7215C146.718 46.9851 145.729 48.4863 145.042 50.1279C144.354 51.7587 144 53.5299 144 55.3119Z" fill="#1B1340"/>
<path d="M187.332 69.1574V48.0651C187.332 39.4575 192.327 32.6103 202.328 32.6103C203.928 32.5887 205.529 32.7615 207.097 33.1395V41.8119C205.958 41.7363 204.981 41.7363 204.519 41.7363C199.223 41.7363 196.946 44.1771 196.946 49.1235V69.1574H187.332Z" fill="#1B1340"/>
<path d="M209.975 51.2728C209.975 40.6889 217.924 32.6213 228.988 32.6213C240.052 32.6213 248.001 40.6889 248.001 51.2728C248.001 61.8568 240.052 70 228.988 70C217.924 70 209.975 61.846 209.975 51.2728ZM238.527 51.2728C238.527 45.2573 234.51 40.9913 228.988 40.9913C223.456 40.9913 219.45 45.2465 219.45 51.2728C219.45 57.364 223.467 61.5544 228.988 61.5544C234.52 61.5544 238.527 57.3532 238.527 51.2728Z" fill="#1B1340"/>
<path d="M278.744 51.2728C278.744 40.6889 286.693 32.6213 297.757 32.6213C308.81 32.6213 316.759 40.6889 316.759 51.2728C316.759 61.8568 308.81 70 297.757 70C286.693 70 278.744 61.846 278.744 51.2728ZM307.285 51.2728C307.285 45.2573 303.268 40.9913 297.746 40.9913C292.225 40.9913 288.208 45.2465 288.208 51.2728C288.208 57.364 292.225 61.5544 297.746 61.5544C303.268 61.5544 307.285 57.3532 307.285 51.2728Z" fill="#1B1340"/>
<path d="M321.754 69.1576V48.8321C321.754 39.3929 327.738 32.6105 338.415 32.6105C349.017 32.6105 355 39.3821 355 48.8321V69.1576H345.461V49.5881C345.461 44.3393 343.109 41.0561 338.415 41.0561C333.721 41.0561 331.368 44.3285 331.368 49.5881V69.1576H321.754Z" fill="#1B1340"/>
<path d="M275.865 41.0663H265.489V54.3935C265.489 59.0375 267.154 61.1651 271.923 61.1651C272.374 61.1651 273.513 61.1651 274.952 61.0895V68.9303C272.987 69.4595 271.247 69.7727 269.345 69.7727C261.321 69.7727 255.864 64.9019 255.864 55.6895V41.0663H249.419V33.3768H251.031C251.664 33.3768 252.298 33.2472 252.878 33.0096C253.469 32.7612 253.995 32.4048 254.446 31.9512C254.898 31.4976 255.252 30.9684 255.499 30.3744C255.746 29.7804 255.864 29.154 255.864 28.5168V21.27H265.478V33.3768H275.855V41.0663H275.865Z" fill="#1B1340"/>
<path d="M74.8827 21.7999L33.3631 22.0326C31.5754 22.0437 29.8324 21.5006 28.3687 20.4699L19.1173 13.9532C17.676 12.9336 15.9441 12.3906 14.1788 12.3906H0V76.1278C0 82.1347 4.90503 87 10.9609 87H83.4637V30.256C83.4637 25.568 79.6201 21.7666 74.8827 21.7999Z" fill="url(#paint0_radial_11985_190895)"/>
<path fill-rule="evenodd" clip-rule="evenodd" d="M49.9553 8.75542H95.0391C101.095 8.75542 106 13.6208 106 19.6276V76.1167C106 82.1236 101.095 86.9889 95.0391 86.9889H83.4637V30.256C83.4637 25.568 79.6201 21.7666 74.8827 21.7999L33.3631 22.0326C31.5754 22.0437 29.8324 21.5006 28.3687 20.4699L19.1173 13.9532C17.676 12.9336 15.9441 12.3906 14.1788 12.3906H0V10.8722C0 4.86535 4.90503 0 10.9609 0H31.5307C33.6089 0 35.6313 0.653885 37.2961 1.87299L44.1788 6.88242C45.8547 8.10153 47.8771 8.75542 49.9553 8.75542Z" fill="url(#paint1_linear_11985_190895)"/>
<defs>
<radialGradient id="paint0_radial_11985_190895" cx="0" cy="0" r="1" gradientUnits="userSpaceOnUse" gradientTransform="translate(114.878 -59.7674) scale(197.794 180.137)">
<stop offset="0.5561" stop-color="#6D4AFF"/>
<stop offset="1" stop-color="#FF50C3"/>
</radialGradient>
<linearGradient id="paint1_linear_11985_190895" x1="-1.3974" y1="-45.4032" x2="129.901" y2="100.087" gradientUnits="userSpaceOnUse">
<stop stop-color="#7341FF"/>
<stop offset="0.3593" stop-color="#B487FF"/>
<stop offset="1" stop-color="#FFC8FF"/>
</linearGradient>
</defs>
</svg>
